REM DIRINDEX 1\2,1\4,1\3\5,1\3\6,1\3\7
REM DIRNAME folder01,folder02,folder03,folder04,folder05,folder06,folder07
TITLE ""
FILE "CD1Track05.mp3" MP3
  TRACK 01 AUDIO
    TITLE "0:"
    INDEX 01 00:00:00
  TRACK 02 AUDIO
    TITLE "5:cjc081_0045"
    INDEX 01 00:00:27
  TRACK 03 AUDIO
    TITLE "0:"
    INDEX 01 00:01:46
  TRACK 04 AUDIO
    TITLE "6:cjc081_0046"
    INDEX 01 00:02:10
  TRACK 05 AUDIO
    TITLE "0:"
    INDEX 01 00:03:37
  TRACK 06 AUDIO
    TITLE "5:cjc081_0047"
    INDEX 01 00:04:05
  TRACK 07 AUDIO
    TITLE "0:"
    INDEX 01 00:05:57
  TRACK 08 AUDIO
    TITLE "6:cjc081_0048"
    INDEX 01 00:06:26
  TRACK 09 AUDIO
    TITLE "0:"
    INDEX 01 00:08:38
  TRACK 10 AUDIO
    TITLE "5:cjc081_0049"
    INDEX 01 00:08:72
  TRACK 11 AUDIO
    TITLE "0:"
    INDEX 01 00:10:19
  TRACK 12 AUDIO
    TITLE "6:cjc081_0050"
    INDEX 01 00:10:65
  TRACK 13 AUDIO
    TITLE "0:"
    INDEX 01 00:12:07
  TRACK 14 AUDIO
    TITLE "5:cjc081_0051"
    INDEX 01 00:12:52
  TRACK 15 AUDIO
    TITLE "0:"
    INDEX 01 00:13:73
  TRACK 16 AUDIO
    TITLE "6:cjc081_0052"
    INDEX 01 00:14:47
  TRACK 17 AUDIO
    TITLE "0:"
    INDEX 01 00:19:44
  TRACK 18 AUDIO
    TITLE "5:cjc081_0053"
    INDEX 01 00:20:16
  TRACK 19 AUDIO
    TITLE "0:"
    INDEX 01 00:21:49
  TRACK 20 AUDIO
    TITLE "6:cjc081_0054"
    INDEX 01 00:22:21
  TRACK 21 AUDIO
    TITLE "0:"
    INDEX 01 00:23:28
  TRACK 22 AUDIO
    TITLE "5:cjc081_0055"
    INDEX 01 00:23:69
  TRACK 23 AUDIO
    TITLE "0:"
    INDEX 01 00:25:58
  TRACK 24 AUDIO
    TITLE "6:cjc081_0056"
    INDEX 01 00:26:26
  TRACK 25 AUDIO
    TITLE "0:"
    INDEX 01 00:28:68
  TRACK 26 AUDIO
    TITLE "5:cjc081_0057"
    INDEX 01 00:29:36
  TRACK 27 AUDIO
    TITLE "0:"
    INDEX 01 00:30:55
  TRACK 28 AUDIO
    TITLE "6:cjc081_0058"
    INDEX 01 00:31:27
  TRACK 29 AUDIO
    TITLE "0:"
    INDEX 01 00:33:13
  TRACK 30 AUDIO
    TITLE "5:cjc081_0059"
    INDEX 01 00:33:58
  TRACK 31 AUDIO
    TITLE "0:"
    INDEX 01 00:35:15
  TRACK 32 AUDIO
    TITLE "6:cjc081_0060"
    INDEX 01 00:35:63
  TRACK 33 AUDIO
    TITLE "0:"
    INDEX 01 00:37:34
  TRACK 34 AUDIO
    TITLE "5:cjc081_0061"
    INDEX 01 00:38:06
  TRACK 35 AUDIO
    TITLE "0:"
    INDEX 01 00:39:60
  TRACK 36 AUDIO
    TITLE "6:cjc081_0062"
    INDEX 01 00:40:30
  TRACK 37 AUDIO
    TITLE "0:"
    INDEX 01 00:42:08
  TRACK 38 AUDIO
    TITLE "5:cjc081_0063"
    INDEX 01 00:42:53
  TRACK 39 AUDIO
    TITLE "0:"
    INDEX 01 00:44:67
  TRACK 40 AUDIO
    TITLE "6:cjc081_0064"
    INDEX 01 00:45:43
  TRACK 41 AUDIO
    TITLE "0:"
    INDEX 01 00:47:64
  TRACK 42 AUDIO
    TITLE "5:cjc081_0065"
    INDEX 01 00:48:34
  TRACK 43 AUDIO
    TITLE "0:"
    INDEX 01 00:49:61
  TRACK 44 AUDIO
    TITLE "6:cjc081_0066"
    INDEX 01 00:50:33
  TRACK 45 AUDIO
    TITLE "0:"
    INDEX 01 00:55:01
  TRACK 46 AUDIO
    TITLE "5:cjc081_0067"
    INDEX 01 00:55:48
  TRACK 47 AUDIO
    TITLE "0:"
    INDEX 01 00:56:43
  TRACK 48 AUDIO
    TITLE "6:cjc081_0068"
    INDEX 01 00:57:15
  TRACK 49 AUDIO
    TITLE "0:"
    INDEX 01 00:59:02
  TRACK 50 AUDIO
    TITLE "5:cjc081_0069"
    INDEX 01 00:59:47
  TRACK 51 AUDIO
    TITLE "0:"
    INDEX 01 01:00:68
  TRACK 52 AUDIO
    TITLE "6:cjc081_0070"
    INDEX 01 01:01:38
  TRACK 53 AUDIO
    TITLE "0:"
    INDEX 01 01:03:37
  TRACK 54 AUDIO
    TITLE "5:cjc081_0071"
    INDEX 01 01:04:03
  TRACK 55 AUDIO
    TITLE "0:"
    INDEX 01 01:05:32
  TRACK 56 AUDIO
    TITLE "6:cjc081_0072"
    INDEX 01 01:06:00
  TRACK 57 AUDIO
    TITLE "0:"
    INDEX 01 01:08:74
  TRACK 58 AUDIO
    TITLE "5:cjc081_0073"
    INDEX 01 01:09:42
  TRACK 59 AUDIO
    TITLE "0:"
    INDEX 01 01:10:67
  TRACK 60 AUDIO
    TITLE "6:cjc081_0074"
    INDEX 01 01:11:37
  TRACK 61 AUDIO
    TITLE "0:"
    INDEX 01 01:12:73
  TRACK 62 AUDIO
    TITLE "7:cjc081_0075"
    INDEX 01 01:14:35
  TRACK 63 AUDIO
    TITLE "0:"
    INDEX 01 01:25:19
